<?xml version="1.0" encoding="UTF-8" standalone="no"?>
<!-- License Agreement at http://iconmonstr.com/license/ -->

<svg
   xmlns:dc="http://purl.org/dc/elements/1.1/"
   xmlns:cc="http://creativecommons.org/ns#"
   xmlns:rdf="http://www.w3.org/1999/02/22-rdf-syntax-ns#"
   xmlns:svg="http://www.w3.org/2000/svg"
   xmlns="http://www.w3.org/2000/svg"
   xmlns:sodipodi="http://sodipodi.sourceforge.net/DTD/sodipodi-0.dtd"
   xmlns:inkscape="http://www.inkscape.org/namespaces/inkscape"
   version="1.1"
   x="0px"
   y="0px"
   width="512px"
   height="512px"
   viewBox="0 0 512 512"
   enable-background="new 0 0 512 512"
   xml:space="preserve"
   id="svg2"
   inkscape:version="0.48.3.1 r9886"
   sodipodi:docname="add-task.svg"><metadata
   id="metadata9"><rdf:RDF><cc:Work
       rdf:about=""><dc:format>image/svg+xml</dc:format><dc:type
         rdf:resource="http://purl.org/dc/dcmitype/StillImage" /><dc:title></dc:title></cc:Work></rdf:RDF></metadata><defs
   id="defs7" /><sodipodi:namedview
   pagecolor="#ffffff"
   bordercolor="#666666"
   borderopacity="1"
   objecttolerance="10"
   gridtolerance="10"
   guidetolerance="10"
   inkscape:pageopacity="0"
   inkscape:pageshadow="2"
   inkscape:window-width="1920"
   inkscape:window-height="964"
   id="namedview5"
   showgrid="false"
   inkscape:zoom="1.3037281"
   inkscape:cx="257.94624"
   inkscape:cy="252.33734"
   inkscape:window-x="0"
   inkscape:window-y="22"
   inkscape:window-maximized="1"
   inkscape:current-layer="svg2" />
<path
   style="fill:#ffffff"
   id="note-25-icon"
   d="m 369.162,49.667 c -45.725,0 -82.794,37.066 -82.794,82.791 0,45.725 37.069,82.791 82.794,82.791 45.723,0 82.79,-37.066 82.79,-82.791 0,-45.725 -37.067,-82.791 -82.79,-82.791 z m 50.881,97.834 -35.837,0 0,35.838 -27.678,0 0,-35.838 -35.837,0 0,-27.676 35.837,0 0,-35.836 27.678,0 0,35.836 35.837,0 z m -0.661,86.01 0,78.352 c 0,61.402 -84.153,150.471 -152.318,150.471 l -207.016,0 0,-412 231.806,0 c -0.824,0.777 -1.643,1.564 -2.447,2.369 -10.931,10.93 -19.334,23.711 -24.934,37.631 l -164.425,0 0,332 c 118.342,0 134.344,0 166.406,0 58.859,0 35,-76.092 35,-76.092 0,0 77.928,25.289 77.928,-37.832 0,-9.807 0,-34.365 0,-63.621 14.057,-1.257 27.576,-5.091 40,-11.278 z"
   inkscape:connector-curvature="0"
   sodipodi:nodetypes="sssssccccccccccccccsscccccccscscc" />
</svg>