<?xml version="1.0" encoding="UTF-8" standalone="no"?>
<!-- License Agreement at http://iconmonstr.com/license/ -->

<svg
   xmlns:dc="http://purl.org/dc/elements/1.1/"
   xmlns:cc="http://creativecommons.org/ns#"
   xmlns:rdf="http://www.w3.org/1999/02/22-rdf-syntax-ns#"
   xmlns:svg="http://www.w3.org/2000/svg"
   xmlns="http://www.w3.org/2000/svg"
   xmlns:sodipodi="http://sodipodi.sourceforge.net/DTD/sodipodi-0.dtd"
   xmlns:inkscape="http://www.inkscape.org/namespaces/inkscape"
   version="1.1"
   x="0px"
   y="0px"
   width="512px"
   height="512px"
   viewBox="0 0 512 512"
   enable-background="new 0 0 512 512"
   xml:space="preserve"
   id="svg2"
   inkscape:version="0.48.3.1 r9886"
   sodipodi:docname="menu.svg"><metadata
   id="metadata9"><rdf:RDF><cc:Work
       rdf:about=""><dc:format>image/svg+xml</dc:format><dc:type
         rdf:resource="http://purl.org/dc/dcmitype/StillImage" /></cc:Work></rdf:RDF></metadata><defs
   id="defs7" /><sodipodi:namedview
   pagecolor="#ffffff"
   bordercolor="#666666"
   borderopacity="1"
   objecttolerance="10"
   gridtolerance="10"
   guidetolerance="10"
   inkscape:pageopacity="0"
   inkscape:pageshadow="2"
   inkscape:window-width="1920"
   inkscape:window-height="964"
   id="namedview5"
   showgrid="false"
   inkscape:zoom="0.921875"
   inkscape:cx="368.83359"
   inkscape:cy="351.31025"
   inkscape:window-x="0"
   inkscape:window-y="22"
   inkscape:window-maximized="1"
   inkscape:current-layer="svg2" />
<path
   id="menu-6-icon"
   d="M256,90c44.34,0,86.026,17.267,117.38,48.62C404.732,169.974,422,211.66,422,256  s-17.268,86.026-48.62,117.38C342.026,404.733,300.34,422,256,422c-44.34,0-86.026-17.267-117.38-48.62  C107.267,342.026,90,300.34,90,256s17.267-86.026,48.62-117.38C169.974,107.267,211.66,90,256,90z M256,50  C142.229,50,50,142.229,50,256s92.229,206,206,206s206-92.229,206-206S369.771,50,256,50z M359.97,210.212H156.03v-32.175H359.97  V210.212z M359.97,239.912H156.03v32.175H359.97V239.912z M359.97,301.787H156.03v32.175H359.97V301.787z"
   style="fill:#ffffff" />
</svg>